<svg xmlns="http://www.w3.org/2000/svg" xmlns:xlink="http://www.w3.org/1999/xlink" width="50" zoomAndPan="magnify" viewBox="0 0 37.5 37.499999" height="50" preserveAspectRatio="xMidYMid meet" version="1.0"><defs><clipPath id="id1"><path d="M 0 0 L 37.007812 0 L 37.007812 37.007812 L 0 37.007812 Z M 0 0 " clip-rule="nonzero"/></clipPath></defs><g clip-path="url(#id1)"><path fill="rgb(100%, 100%, 100%)" d="M 18.75 37.5 C 29.078125 37.5 37.5 29.078125 37.5 18.75 C 37.5 8.421875 29.078125 0 18.75 0 C 8.421875 0 0 8.421875 0 18.75 C 0 29.078125 8.421875 37.5 18.75 37.5 " fill-opacity="1" fill-rule="evenodd"/></g><path fill="rgb(0%, 0%, 0%)" d="M 22.960938 18.484375 L 29.828125 11.617188 L 25.882812 7.671875 L 18.75 14.804688 L 11.617188 7.671875 L 7.671875 11.617188 L 14.804688 18.75 L 7.671875 25.882812 L 11.617188 29.828125 L 18.75 22.695312 L 25.882812 29.828125 L 29.828125 25.882812 L 22.695312 18.75 L 22.960938 18.484375 " fill-opacity="1" fill-rule="evenodd"/></svg>